HIERARCHY
ROOT root
{
	OFFSET	0	13.1	24.9
	CHANNELS 6  Xposition Yposition Zposition Xrotation Yrotation Zrotation
	JOINT spine_1
	{
		OFFSET	0	9.99999	0
		CHANNELS 3  Xrotation Yrotation Zrotation
		JOINT spine_2
		{
			OFFSET	0	112	-10
			CHANNELS 3  Xrotation Yrotation Zrotation
			JOINT spine_3
			{
				OFFSET	0	206.5	19.3
				CHANNELS 3  Xrotation Yrotation Zrotation
				JOINT spine_4
				{
					OFFSET	0	110.4	14.6
					CHANNELS 3  Xrotation Yrotation Zrotation
					JOINT neck_1
					{
						OFFSET	0	71.8	-50.3
						CHANNELS 3  Xrotation Yrotation Zrotation
						JOINT neck_2
						{
							OFFSET	0	86.2	-25.8
							CHANNELS 3  Xrotation Yrotation Zrotation
							JOINT head_ee
							{
								OFFSET	0	179.8	-8.7
								CHANNELS 3  Xrotation Yrotation Zrotation
								End Site
								{
									OFFSET	1	0	0
								}
							}
						}
					}
					JOINT left_clavicle
					{
						OFFSET	-43.2	22.4	-70.8
						CHANNELS 3  Xrotation Yrotation Zrotation
						JOINT left_shoulder
						{
							OFFSET	-93.9	-5.79999	48.7
							CHANNELS 3  Xrotation Yrotation Zrotation
							JOINT left_elbow
							{
								OFFSET	-291.4	-30.8	15.2
								CHANNELS 3  Xrotation Yrotation Zrotation
								JOINT left_lowarm_twist
								{
									OFFSET	-110.7	-3.89999	13.6
									CHANNELS 3  Xrotation Yrotation Zrotation
									JOINT left_hand
									{
										OFFSET	-110.7	-3.89999	13.6
										CHANNELS 3  Xrotation Yrotation Zrotation
										JOINT left_ee
										{
											OFFSET	-80.8	-5.10001	12.1
											CHANNELS 3  Xrotation Yrotation Zrotation
											End Site
											{
												OFFSET	1	0	0
											}
										}
									}
								}
							}
						}
					}
					JOINT right_clavicle
					{
						OFFSET	43.2	22.4	-70.8
						CHANNELS 3  Xrotation Yrotation Zrotation
						JOINT right_shoulder
						{
							OFFSET	93.9	-5.79999	48.7
							CHANNELS 3  Xrotation Yrotation Zrotation
							JOINT right_elbow
							{
								OFFSET	291.4	-30.8	15.2
								CHANNELS 3  Xrotation Yrotation Zrotation
								JOINT right_lowarm_twist
								{
									OFFSET	110.7	-3.89999	13.6
									CHANNELS 3  Xrotation Yrotation Zrotation
									JOINT right_hand
									{
										OFFSET	110.7	-3.89999	13.6
										CHANNELS 3  Xrotation Yrotation Zrotation
										JOINT right_ee
										{
											OFFSET	80.8	-5.10001	12.1
											CHANNELS 3  Xrotation Yrotation Zrotation
											End Site
											{
												OFFSET	1	0	0
											}
										}
									}
								}
							}
						}
					}
				}
			}
		}
	}
	JOINT left_hip
	{
		OFFSET	-82.8	-127.5	0.300001
		CHANNELS 3  Xrotation Yrotation Zrotation
		JOINT left_knee
		{
			OFFSET	-28.2	-396.7	2.2
			CHANNELS 3  Xrotation Yrotation Zrotation
			JOINT left_ankle
			{
				OFFSET	-11.7	-411.3	35.4
				CHANNELS 3  Xrotation Yrotation Zrotation
				JOINT left_toes
				{
					OFFSET	0	-60	-88.6
					CHANNELS 3  Xrotation Yrotation Zrotation
					JOINT left_foot_ee
					{
						OFFSET	-22.5	-16.5	-42.2
						CHANNELS 3  Xrotation Yrotation Zrotation
						End Site
						{
							OFFSET	1	0	0
						}
					}
				}
			}
		}
	}
	JOINT right_hip
	{
		OFFSET	82.8	-127.5	0.300001
		CHANNELS 3  Xrotation Yrotation Zrotation
		JOINT right_knee
		{
			OFFSET	28.2	-396.7	2.2
			CHANNELS 3  Xrotation Yrotation Zrotation
			JOINT right_ankle
			{
				OFFSET	11.7	-411.3	35.4
				CHANNELS 3  Xrotation Yrotation Zrotation
				JOINT right_toes
				{
					OFFSET	0	-60	-88.6
					CHANNELS 3  Xrotation Yrotation Zrotation
					JOINT right_foot_ee
					{
						OFFSET	22.5	-16.5	-42.2
						CHANNELS 3  Xrotation Yrotation Zrotation
						End Site
						{
							OFFSET	1	0	0
						}
					}
				}
			}
		}
	}
}
MOTION
Frames: 10
Frame Time: 0.02
2948.83961191 690.797 -1856.7174246 -5.2404916946 20.0950041925 0.21076936845 3.94124 0.386235 2.15617 3.9438 0.248283 2.17637 3.95179 -0.0639087 2.18955 3.94521 0.282608 2.17218 -9.58695 10.4795 -1.45679 -9.69814 20.6907 1.15852 -0.0 0.0 -0.0 -1.17151 -4.53954 -2.89035 -7.10305 -28.216 57.8815 0.812497 -21.924 0.157377 47.6741 -0.807376 -5.86313 -0.0467983 5.99041 2.19513 -0.0 0.0 -0.0 8.05281 1.20489 -15.7103 -31.3417 35.7664 -67.0384 0.282825 7.97558 -0.0197164 42.2294 0.47027 5.25365 -0.463558 -15.2216 -3.35032 0.0 0.0 0.0 7.34405 -7.17571 1.82829 -0.206539 0.0084493 0.0305692 17.589 18.4937 -2.47418 -8.71062 0.0 0.0 -0.0 0.0 -0.0 25.8972 25.5924 -4.98069 -52.0084 1.40155 -7.58851 33.8822 -13.1294 4.32465 -10.0511 0.0 0.0 0.0 0.0 0.0 
2920.06528367 687.928 -1858.5725622 -6.06717525712 19.1617188071 0.550507855369 4.10459 0.330274 2.11629 4.10706 0.194972 2.133 4.11281 -0.104528 2.13934 4.1065 0.234575 2.12902 -9.3022 9.3202 -4.1872 -9.34157 20.3593 -1.86542 -0.0 0.0 -0.0 -0.583814 -2.92931 -1.50414 -7.24876 -27.2528 55.6163 0.890743 -23.8091 0.187787 45.2869 -0.652428 -5.59982 -0.0364302 3.2082 1.10501 -0.0 0.0 -0.0 6.98488 2.75338 -13.5464 -31.8292 35.5606 -66.2654 0.39407 11.046 -0.0381046 42.1426 0.465373 5.24369 -0.449423 -14.7327 -3.23607 0.0 0.0 0.0 6.48977 -4.95029 2.84067 1.74726 -0.0758846 -0.257368 19.4391 18.8337 -2.71683 -9.80365 0.0 0.0 -0.0 0.0 -0.0 28.1903 22.373 -2.8864 -52.1382 1.41344 -7.60457 32.3984 -10.3381 4.15151 -10.2065 0.0 0.0 0.0 0.0 0.0 
2895.00249656 685.357 -1858.39654074 -6.48270922548 19.6210404391 0.808967391073 4.37975 0.243902 2.0019 4.38198 0.116048 2.01336 4.38453 -0.156491 2.01062 4.37892 0.162948 2.01011 -10.1887 8.55508 -5.39074 -10.2263 19.7283 -3.07749 -0.0 0.0 -0.0 -0.0977653 -1.25409 -0.340005 -6.62364 -26.7204 53.6632 0.988911 -26.0987 0.229211 43.0395 -0.516727 -5.3463 0.0855346 -0.623223 0.309194 -0.0 0.0 -0.0 6.50245 3.69536 -12.5519 -34.0606 35.2929 -65.5287 0.468512 13.0665 -0.0536558 42.0935 0.46261 5.23806 -0.376854 -13.4056 -3.14131 0.0 0.0 0.0 5.26601 -2.47138 3.92996 3.2952 -0.149655 -0.483394 21.6367 19.3467 -3.00094 -10.0283 0.0 0.0 -0.0 0.0 -0.0 29.9961 19.4266 -1.44226 -51.9222 1.39367 -7.57782 31.3037 -10.5543 4.03853 -10.4499 0.0 0.0 0.0 0.0 0.0 
2870.93073515 687.141 -1860.89858135 -6.20205140363 21.3580003634 0.370990067877 4.5006 0.143967 1.88664 4.50258 0.0236453 1.89198 4.50194 -0.227874 1.87836 4.49702 0.0715827 1.89077 -10.7839 8.59711 -4.6722 -10.8661 19.319 -2.25552 -0.0 0.0 -0.0 0.429104 -0.00213314 0.826805 -6.05225 -26.6581 52.6574 1.06997 -27.9242 0.266028 39.343 -0.315532 -4.9185 0.115229 -2.18291 -0.149128 -0.0 0.0 -0.0 6.29254 3.48392 -12.1313 -36.0343 34.9295 -64.8396 0.551076 15.2691 -0.0738683 41.9767 0.45605 5.22463 -0.367607 -10.6612 -2.06117 0.0 0.0 0.0 2.55115 -2.19031 5.86326 6.02771 -0.294718 -0.877329 21.7025 18.6553 -3.00149 -11.6808 0.0 0.0 -0.0 0.0 -0.0 33.218 18.252 -2.25164 -51.9581 1.39694 -7.58226 30.6459 -11.4074 3.97386 -10.3182 0.0 0.0 0.0 0.0 0.0 
2812.84478695 686.441 -1867.9249282 -7.05670637394 23.307140958 0.524642069893 4.62741 0.192689 1.66299 4.62895 0.0864936 1.67188 4.63032 -0.132564 1.66886 4.62645 0.132627 1.66885 -10.3238 8.56724 -6.40045 -10.34 20.4217 -4.03924 -0.0 0.0 -0.0 1.36068 2.10767 2.82009 -3.82382 -26.4172 50.2592 1.22339 -31.2159 0.341771 36.274 -0.16978 -4.55419 0.656391 -6.87454 1.51388 -0.0 0.0 -0.0 5.9422 4.53857 -11.3902 -37.7569 34.1083 -64.7772 0.573134 15.8501 -0.0797851 43.336 0.534056 5.38005 -0.964572 -9.88209 2.08952 0.0 0.0 0.0 -0.132014 4.26841 10.892 6.9606 -0.348537 -1.01021 28.8219 20.9389 -3.8869 -12.8234 0.0 0.0 -0.0 0.0 -0.0 34.7416 11.1924 -2.69827 -39.6627 0.445445 -5.95101 23.5974 -15.7546 3.20548 -10.6614 0.0 0.0 0.0 0.0 0.0 
2794.39074721 685.253 -1871.67481936 -6.29722656857 25.0580585164 0.0597090883215 4.49816 0.245545 1.72116 4.4998 0.135542 1.7333 4.50272 -0.095804 1.73594 4.49856 0.179516 1.7293 -10.4795 8.67011 -6.37043 -10.5076 20.5891 -3.95204 -0.0 0.0 -0.0 1.50497 2.67502 3.14385 -3.40328 -26.0137 49.78 1.30338 -32.8471 0.384203 35.2035 -0.123568 -4.42538 0.780688 -7.33577 2.15763 -0.0 0.0 -0.0 5.99736 4.05897 -11.5175 -38.7678 33.6784 -64.5275 0.579345 16.0131 -0.0814901 43.761 0.559202 5.42826 -1.15063 -9.75983 3.33767 0.0 0.0 0.0 -2.01909 4.59872 11.8492 6.84964 -0.342022 -0.994452 30.8694 20.2205 -4.10456 -13.1688 0.0 0.0 -0.0 0.0 -0.0 34.9628 10.252 -3.03341 -36.0338 0.233908 -5.43506 20.5544 -16.3075 2.83582 -11.0159 0.0 0.0 0.0 0.0 0.0 
2776.09547185 684.546 -1876.36503478 -6.93798352065 25.3264783307 0.304579018736 4.51403 0.359746 1.75189 4.51571 0.247558 1.77122 4.52214 0.0108425 1.7884 4.5178 0.293107 1.76426 -10.6229 8.83684 -6.46965 -10.6608 20.9631 -3.97594 -0.0 0.0 -0.0 1.6499 3.09949 3.45298 -2.81309 -26.203 49.4389 1.33 -33.3769 0.398743 34.3326 -0.0877556 -4.31997 0.868617 -7.63439 2.62489 -0.0 0.0 -0.0 5.91693 4.25517 -11.3482 -39.331 33.5217 -64.9404 0.581921 16.0806 -0.0822019 43.9677 0.571561 5.45164 -1.29755 -9.48576 4.40622 0.0 0.0 0.0 -2.593 5.23895 12.6491 6.86616 -0.34299 -0.9968 32.6262 20.1072 -4.29369 -13.3981 0.0 0.0 -0.0 0.0 -0.0 36.4801 9.08923 -2.5167 -30.9053 -0.00832878 -4.68577 17.8147 -16.3363 2.48694 -11.4881 0.0 0.0 0.0 0.0 0.0 
2762.99038419 679.977 -1884.25400218 -7.31627081757 25.3155064832 -0.161787622053 4.61253 0.459592 1.83273 4.61434 0.342059 1.85825 4.62406 0.0963957 1.887 4.61931 0.393152 1.84812 -11.1537 9.30632 -6.28338 -11.243 21.7048 -3.55607 -0.0 0.0 -0.0 1.721 3.82024 3.64738 -1.97286 -26.0933 49.3262 1.41793 -35.0822 0.448211 33.7418 -0.0643763 -4.24816 0.952208 -8.25527 2.92564 -0.0 0.0 -0.0 5.99387 4.39284 -11.5 -38.4682 33.7396 -65.9019 0.57197 15.8195 -0.0794675 44.5157 0.604739 5.51342 -1.41058 -9.64193 5.06309 0.0 0.0 0.0 -3.22371 6.38951 13.8767 7.19904 -0.36264 -1.04404 33.7975 20.5691 -4.42718 -13.7007 0.0 0.0 -0.0 0.0 -0.0 38.0651 8.41861 -2.32273 -24.9202 -0.204884 -3.78869 15.3694 -16.8311 2.16959 -12.6775 0.0 0.0 0.0 0.0 0.0 
2763.66975747 679.977 -1885.55747791 -7.30544783086 25.1364437596 -0.187182369134 4.61253 0.459592 1.83273 4.61434 0.342059 1.85825 4.62406 0.0963957 1.887 4.61931 0.393152 1.84812 -11.1537 9.30632 -6.28338 -11.243 21.7048 -3.55607 -0.0 0.0 -0.0 1.721 3.82024 3.64738 -1.97286 -26.0933 49.3262 1.41793 -35.0822 0.448211 33.7418 -0.0643763 -4.24816 0.952208 -8.25527 2.92564 -0.0 0.0 -0.0 5.99387 4.39284 -11.5 -38.4682 33.7396 -65.9019 0.57197 15.8195 -0.0794675 44.5157 0.604739 5.51342 -1.41058 -9.64193 5.06309 0.0 0.0 0.0 -3.22371 6.38951 13.8767 7.19904 -0.36264 -1.04404 33.7975 20.5691 -4.42718 -13.7007 0.0 0.0 -0.0 0.0 -0.0 38.0651 8.41861 -2.32273 -24.9202 -0.204884 -3.78869 15.3694 -16.8311 2.16959 -12.6775 0.0 0.0 0.0 0.0 0.0 
2742.5227192 677.739 -1893.34656736 -9.73062819194 27.1478193139 0.188909227762 4.95362 0.556349 2.25484 4.95635 0.411779 2.28565 4.97042 0.123772 2.31913 4.96325 0.488387 2.27053 -11.4015 9.99545 -5.99207 -11.5418 22.8075 -3.02193 -0.0 0.0 -0.0 2.02937 4.88825 4.30327 -0.876258 -25.7613 49.5196 1.55097 -37.5326 0.527005 32.8082 -0.0289457 -4.13421 0.939841 -9.05124 2.50222 -0.0 0.0 -0.0 6.39422 6.92159 -12.2364 -36.4973 34.3225 -68.8458 0.553945 15.3449 -0.0746256 46.3177 0.717983 5.7143 -1.62814 -11.1052 5.78147 0.0 0.0 0.0 -1.31187 8.77003 14.3922 6.98334 -0.349876 -1.01344 33.8937 21.9841 -4.46772 -15.505 0.0 0.0 -0.0 0.0 -0.0 37.3309 8.11816 -1.56372 -8.31792 -0.252061 -1.25054 12.4901 -15.3826 1.77535 -14.2086 0.0 0.0 0.0 0.0 0.0 
